<mxfile host="app.diagrams.net" agent="Mozilla/5.0 (Windows NT 10.0; Win64; x64; rv:142.0) Gecko/20100101 Firefox/142.0" version="28.2.1">
  <diagram name="Página-1" id="4vAA6-LfkqkJaONuwYmr">
    <mxGraphModel dx="1842" dy="1026" grid="1" gridSize="10" guides="1" tooltips="1" connect="1" arrows="1" fold="1" page="1" pageScale="1" pageWidth="827" pageHeight="1169" math="0" shadow="0">
      <root>
        <mxCell id="0" />
        <mxCell id="1" parent="0" />
        <mxCell id="R5TEoD98UAiI7K2iKfly-1" value="" style="rounded=0;whiteSpace=wrap;html=1;" vertex="1" parent="1">
          <mxGeometry x="1310" y="75.5" width="430" height="240" as="geometry" />
        </mxCell>
        <mxCell id="YmZyUVctugemeGa0tmNT-90" value="" style="rounded=0;whiteSpace=wrap;html=1;" parent="1" vertex="1">
          <mxGeometry x="945" y="81" width="350" height="229" as="geometry" />
        </mxCell>
        <mxCell id="YmZyUVctugemeGa0tmNT-89" value="" style="rounded=0;whiteSpace=wrap;html=1;" parent="1" vertex="1">
          <mxGeometry x="580" y="81" width="350" height="229" as="geometry" />
        </mxCell>
        <mxCell id="YmZyUVctugemeGa0tmNT-28" style="edgeStyle=orthogonalEdgeStyle;rounded=0;orthogonalLoop=1;jettySize=auto;html=1;entryX=1;entryY=0.5;entryDx=0;entryDy=0;" parent="1" target="YmZyUVctugemeGa0tmNT-18" edge="1">
          <mxGeometry relative="1" as="geometry">
            <mxPoint x="875" y="130" as="sourcePoint" />
            <mxPoint x="875" y="258.75000000000006" as="targetPoint" />
            <Array as="points">
              <mxPoint x="900" y="130" />
              <mxPoint x="900" y="276" />
            </Array>
          </mxGeometry>
        </mxCell>
        <mxCell id="YmZyUVctugemeGa0tmNT-9" value="" style="rounded=0;whiteSpace=wrap;html=1;" parent="1" vertex="1">
          <mxGeometry x="225" y="81" width="320" height="190" as="geometry" />
        </mxCell>
        <mxCell id="YmZyUVctugemeGa0tmNT-2" value="readFileSync(&quot;/path1&quot;, &quot;charset&quot;)" style="rounded=1;whiteSpace=wrap;html=1;fillColor=light-dark(#FFFFFF,#EC4A4D);" parent="1" vertex="1">
          <mxGeometry x="260" y="120" width="250" height="60" as="geometry" />
        </mxCell>
        <mxCell id="YmZyUVctugemeGa0tmNT-5" value="readFileSync(&quot;/path2&quot;, &quot;charset&quot;)" style="rounded=1;whiteSpace=wrap;html=1;fillColor=light-dark(#FFFFFF,#EC4A4D);" parent="1" vertex="1">
          <mxGeometry x="260" y="180" width="250" height="60" as="geometry" />
        </mxCell>
        <mxCell id="YmZyUVctugemeGa0tmNT-8" value="Síncrono" style="text;html=1;align=center;verticalAlign=middle;whiteSpace=wrap;rounded=0;fontStyle=1" parent="1" vertex="1">
          <mxGeometry x="354" y="80" width="60" height="30" as="geometry" />
        </mxCell>
        <mxCell id="YmZyUVctugemeGa0tmNT-11" value="readFile(&quot;/path1&quot;, &quot;charset&quot;, callback1)" style="rounded=1;whiteSpace=wrap;html=1;fillColor=light-dark(#FFFFFF,#EC4A4D);fillStyle=solid;" parent="1" vertex="1">
          <mxGeometry x="625" y="121" width="250" height="19" as="geometry" />
        </mxCell>
        <mxCell id="YmZyUVctugemeGa0tmNT-29" style="edgeStyle=orthogonalEdgeStyle;rounded=0;orthogonalLoop=1;jettySize=auto;html=1;entryX=1;entryY=0.5;entryDx=0;entryDy=0;" parent="1" source="YmZyUVctugemeGa0tmNT-12" target="YmZyUVctugemeGa0tmNT-17" edge="1">
          <mxGeometry relative="1" as="geometry">
            <Array as="points">
              <mxPoint x="890" y="169.00000000000006" />
              <mxPoint x="890" y="258" />
            </Array>
          </mxGeometry>
        </mxCell>
        <mxCell id="YmZyUVctugemeGa0tmNT-88" value="Leer" style="edgeLabel;html=1;align=center;verticalAlign=middle;resizable=0;points=[];labelBackgroundColor=light-dark(#FFFFFF,#000000);" parent="YmZyUVctugemeGa0tmNT-29" vertex="1" connectable="0">
          <mxGeometry x="-0.1653" relative="1" as="geometry">
            <mxPoint x="5" y="6" as="offset" />
          </mxGeometry>
        </mxCell>
        <mxCell id="YmZyUVctugemeGa0tmNT-12" value="readFile(&quot;/path2&quot;, &quot;charset&quot;, callback2)" style="rounded=1;whiteSpace=wrap;html=1;fillColor=light-dark(#FFFFFF,#EC4A4D);" parent="1" vertex="1">
          <mxGeometry x="625" y="159.5" width="250" height="19" as="geometry" />
        </mxCell>
        <mxCell id="YmZyUVctugemeGa0tmNT-14" value="Asíncrono callback" style="text;html=1;align=center;verticalAlign=middle;whiteSpace=wrap;rounded=0;fontStyle=1" parent="1" vertex="1">
          <mxGeometry x="659.5" y="82" width="181" height="30" as="geometry" />
        </mxCell>
        <mxCell id="YmZyUVctugemeGa0tmNT-15" value="" style="rounded=1;whiteSpace=wrap;html=1;fillColor=light-dark(#FFFFFF,#46A761);" parent="1" vertex="1">
          <mxGeometry x="625" y="140.5" width="250" height="19" as="geometry" />
        </mxCell>
        <mxCell id="YmZyUVctugemeGa0tmNT-16" value="" style="rounded=1;whiteSpace=wrap;html=1;fillColor=light-dark(#FFFFFF,#46A761);" parent="1" vertex="1">
          <mxGeometry x="625" y="178" width="250" height="70" as="geometry" />
        </mxCell>
        <mxCell id="YmZyUVctugemeGa0tmNT-17" value="callback2()" style="rounded=1;whiteSpace=wrap;html=1;fillColor=light-dark(#FFFFFF,#EC4A4D);" parent="1" vertex="1">
          <mxGeometry x="625" y="248" width="250" height="19" as="geometry" />
        </mxCell>
        <mxCell id="YmZyUVctugemeGa0tmNT-18" value="callback1()" style="rounded=1;whiteSpace=wrap;html=1;fillColor=light-dark(#FFFFFF,#EC4A4D);" parent="1" vertex="1">
          <mxGeometry x="625" y="267" width="250" height="19" as="geometry" />
        </mxCell>
        <mxCell id="YmZyUVctugemeGa0tmNT-32" value="readFile(&quot;/path1&quot;, &quot;charset&quot;)" style="rounded=1;whiteSpace=wrap;html=1;fillColor=light-dark(#FFFFFF,#EC4A4D);fillStyle=solid;" parent="1" vertex="1">
          <mxGeometry x="995" y="121" width="250" height="19" as="geometry" />
        </mxCell>
        <mxCell id="YmZyUVctugemeGa0tmNT-34" value="path1: promesa resuelta" style="rounded=1;whiteSpace=wrap;html=1;fillColor=light-dark(#FFFFFF,#EC4A4D);" parent="1" vertex="1">
          <mxGeometry x="995" y="170.5" width="250" height="19" as="geometry" />
        </mxCell>
        <mxCell id="YmZyUVctugemeGa0tmNT-36" value="Asíncrono secuencial" style="text;html=1;align=center;verticalAlign=middle;whiteSpace=wrap;rounded=0;fontStyle=1" parent="1" vertex="1">
          <mxGeometry x="1029.5" y="82" width="181" height="30" as="geometry" />
        </mxCell>
        <mxCell id="YmZyUVctugemeGa0tmNT-38" value="" style="rounded=1;whiteSpace=wrap;html=1;fillColor=light-dark(#FFFFFF,#46A761);" parent="1" vertex="1">
          <mxGeometry x="995" y="140.5" width="250" height="29.5" as="geometry" />
        </mxCell>
        <mxCell id="YmZyUVctugemeGa0tmNT-39" value="" style="rounded=1;whiteSpace=wrap;html=1;fillColor=light-dark(#FFFFFF,#46A761);" parent="1" vertex="1">
          <mxGeometry x="995" y="190" width="250" height="30" as="geometry" />
        </mxCell>
        <mxCell id="YmZyUVctugemeGa0tmNT-46" value="readFile(&quot;/path2&quot;, &quot;charset&quot;)" style="rounded=1;whiteSpace=wrap;html=1;fillColor=light-dark(#FFFFFF,#EC4A4D);fillStyle=solid;" parent="1" vertex="1">
          <mxGeometry x="995" y="220.25" width="250" height="19.75" as="geometry" />
        </mxCell>
        <mxCell id="YmZyUVctugemeGa0tmNT-47" value="path2: promesa resuelta" style="rounded=1;whiteSpace=wrap;html=1;fillColor=light-dark(#FFFFFF,#EC4A4D);" parent="1" vertex="1">
          <mxGeometry x="995" y="271.75" width="250" height="18.25" as="geometry" />
        </mxCell>
        <mxCell id="YmZyUVctugemeGa0tmNT-56" value="" style="endArrow=none;html=1;rounded=0;exitX=0.5;exitY=1;exitDx=0;exitDy=0;entryX=0.5;entryY=1;entryDx=0;entryDy=0;strokeWidth=3;strokeColor=light-dark(#000000,#EC4A4D);" parent="1" edge="1">
          <mxGeometry width="50" height="50" relative="1" as="geometry">
            <mxPoint x="246" y="240" as="sourcePoint" />
            <mxPoint x="246" y="180" as="targetPoint" />
          </mxGeometry>
        </mxCell>
        <mxCell id="YmZyUVctugemeGa0tmNT-58" value="" style="endArrow=none;html=1;rounded=0;exitX=0.5;exitY=1;exitDx=0;exitDy=0;entryX=0.5;entryY=1;entryDx=0;entryDy=0;strokeWidth=3;strokeColor=light-dark(#000000,#EC4A4D);" parent="1" edge="1">
          <mxGeometry width="50" height="50" relative="1" as="geometry">
            <mxPoint x="246" y="180" as="sourcePoint" />
            <mxPoint x="246" y="120" as="targetPoint" />
          </mxGeometry>
        </mxCell>
        <mxCell id="YmZyUVctugemeGa0tmNT-59" value="" style="endArrow=none;html=1;rounded=0;entryX=0.5;entryY=0;entryDx=0;entryDy=0;exitX=0.5;exitY=1;exitDx=0;exitDy=0;strokeWidth=3;strokeColor=light-dark(#000000,#EC4A4D);" parent="1" edge="1">
          <mxGeometry width="50" height="50" relative="1" as="geometry">
            <mxPoint x="610" y="140" as="sourcePoint" />
            <mxPoint x="610" y="121" as="targetPoint" />
          </mxGeometry>
        </mxCell>
        <mxCell id="YmZyUVctugemeGa0tmNT-60" value="" style="endArrow=none;html=1;rounded=0;entryX=0.5;entryY=0;entryDx=0;entryDy=0;exitX=0.5;exitY=1;exitDx=0;exitDy=0;strokeWidth=3;strokeColor=light-dark(#000000,#46A761);" parent="1" edge="1">
          <mxGeometry width="50" height="50" relative="1" as="geometry">
            <mxPoint x="610" y="159" as="sourcePoint" />
            <mxPoint x="610" y="140" as="targetPoint" />
          </mxGeometry>
        </mxCell>
        <mxCell id="YmZyUVctugemeGa0tmNT-61" value="" style="endArrow=none;html=1;rounded=0;entryX=0.5;entryY=0;entryDx=0;entryDy=0;exitX=0.5;exitY=1;exitDx=0;exitDy=0;strokeWidth=3;strokeColor=light-dark(#000000,#EC4A4D);" parent="1" edge="1">
          <mxGeometry width="50" height="50" relative="1" as="geometry">
            <mxPoint x="610" y="178" as="sourcePoint" />
            <mxPoint x="610" y="159" as="targetPoint" />
          </mxGeometry>
        </mxCell>
        <mxCell id="YmZyUVctugemeGa0tmNT-62" value="" style="endArrow=none;html=1;rounded=0;entryX=0.5;entryY=0;entryDx=0;entryDy=0;exitX=0.5;exitY=1;exitDx=0;exitDy=0;strokeWidth=3;strokeColor=light-dark(#000000,#46A761);" parent="1" edge="1">
          <mxGeometry width="50" height="50" relative="1" as="geometry">
            <mxPoint x="610" y="248" as="sourcePoint" />
            <mxPoint x="610" y="178" as="targetPoint" />
          </mxGeometry>
        </mxCell>
        <mxCell id="YmZyUVctugemeGa0tmNT-63" value="" style="endArrow=none;html=1;rounded=0;entryX=0.5;entryY=0;entryDx=0;entryDy=0;exitX=0.5;exitY=1;exitDx=0;exitDy=0;strokeWidth=3;strokeColor=light-dark(#000000,#EC4A4D);" parent="1" edge="1">
          <mxGeometry width="50" height="50" relative="1" as="geometry">
            <mxPoint x="610" y="267" as="sourcePoint" />
            <mxPoint x="610" y="248" as="targetPoint" />
          </mxGeometry>
        </mxCell>
        <mxCell id="YmZyUVctugemeGa0tmNT-65" value="" style="endArrow=none;html=1;rounded=0;entryX=0.5;entryY=0;entryDx=0;entryDy=0;exitX=0.5;exitY=1;exitDx=0;exitDy=0;strokeWidth=3;strokeColor=light-dark(#000000,#EC4A4D);" parent="1" edge="1">
          <mxGeometry width="50" height="50" relative="1" as="geometry">
            <mxPoint x="610" y="286" as="sourcePoint" />
            <mxPoint x="610" y="267" as="targetPoint" />
          </mxGeometry>
        </mxCell>
        <mxCell id="YmZyUVctugemeGa0tmNT-66" value="readFile(&quot;/path1&quot;, &quot;charset&quot;)" style="rounded=1;whiteSpace=wrap;html=1;fillColor=light-dark(#FFFFFF,#EC4A4D);fillStyle=solid;" parent="1" vertex="1">
          <mxGeometry x="1340" y="121.5" width="180" height="19" as="geometry" />
        </mxCell>
        <mxCell id="R5TEoD98UAiI7K2iKfly-2" style="edgeStyle=orthogonalEdgeStyle;rounded=0;orthogonalLoop=1;jettySize=auto;html=1;entryX=1;entryY=0.5;entryDx=0;entryDy=0;" edge="1" parent="1" source="YmZyUVctugemeGa0tmNT-68" target="YmZyUVctugemeGa0tmNT-71">
          <mxGeometry relative="1" as="geometry">
            <Array as="points">
              <mxPoint x="1720" y="131" />
              <mxPoint x="1720" y="280" />
            </Array>
          </mxGeometry>
        </mxCell>
        <mxCell id="YmZyUVctugemeGa0tmNT-68" value="readFile(&quot;/path2&quot;, &quot;charset&quot;)" style="rounded=1;whiteSpace=wrap;html=1;fillColor=light-dark(#FFFFFF,#EC4A4D);fillStyle=solid;" parent="1" vertex="1">
          <mxGeometry x="1520" y="121.5" width="180" height="19" as="geometry" />
        </mxCell>
        <mxCell id="YmZyUVctugemeGa0tmNT-70" value="" style="rounded=1;whiteSpace=wrap;html=1;fillColor=light-dark(#FFFFFF,#46A761);" parent="1" vertex="1">
          <mxGeometry x="1340" y="141" width="360" height="129" as="geometry" />
        </mxCell>
        <mxCell id="YmZyUVctugemeGa0tmNT-71" value="todo resuelto" style="rounded=1;whiteSpace=wrap;html=1;fillColor=light-dark(#FFFFFF,#EC4A4D);" parent="1" vertex="1">
          <mxGeometry x="1340" y="271" width="360" height="18.25" as="geometry" />
        </mxCell>
        <mxCell id="YmZyUVctugemeGa0tmNT-72" value="Asíncrono paralelo" style="text;html=1;align=center;verticalAlign=middle;whiteSpace=wrap;rounded=0;fontStyle=1" parent="1" vertex="1">
          <mxGeometry x="1429.5" y="80" width="181" height="30" as="geometry" />
        </mxCell>
        <mxCell id="YmZyUVctugemeGa0tmNT-73" value="" style="endArrow=none;html=1;rounded=0;exitX=0.5;exitY=0;exitDx=0;exitDy=0;entryX=0.5;entryY=1;entryDx=0;entryDy=0;strokeWidth=4;strokeColor=light-dark(#000000,#EC4A4D);" parent="1" edge="1">
          <mxGeometry width="50" height="50" relative="1" as="geometry">
            <mxPoint x="979" y="121.00000000000006" as="sourcePoint" />
            <mxPoint x="979" y="140" as="targetPoint" />
          </mxGeometry>
        </mxCell>
        <mxCell id="YmZyUVctugemeGa0tmNT-74" value="" style="endArrow=none;html=1;rounded=0;exitX=0.5;exitY=0;exitDx=0;exitDy=0;entryX=0.5;entryY=1;entryDx=0;entryDy=0;strokeWidth=4;strokeColor=light-dark(#000000,#46A761);" parent="1" edge="1">
          <mxGeometry width="50" height="50" relative="1" as="geometry">
            <mxPoint x="979" y="140.5" as="sourcePoint" />
            <mxPoint x="979" y="170.00000000000006" as="targetPoint" />
          </mxGeometry>
        </mxCell>
        <mxCell id="YmZyUVctugemeGa0tmNT-75" value="" style="endArrow=none;html=1;rounded=0;exitX=0.5;exitY=0;exitDx=0;exitDy=0;entryX=0.5;entryY=1;entryDx=0;entryDy=0;strokeWidth=4;strokeColor=light-dark(#000000,#EC4A4D);" parent="1" edge="1">
          <mxGeometry width="50" height="50" relative="1" as="geometry">
            <mxPoint x="979" y="170" as="sourcePoint" />
            <mxPoint x="979" y="188.99999999999994" as="targetPoint" />
          </mxGeometry>
        </mxCell>
        <mxCell id="YmZyUVctugemeGa0tmNT-76" value="" style="endArrow=none;html=1;rounded=0;exitX=0.5;exitY=0;exitDx=0;exitDy=0;strokeWidth=4;strokeColor=light-dark(#000000,#46A761);" parent="1" edge="1">
          <mxGeometry width="50" height="50" relative="1" as="geometry">
            <mxPoint x="979" y="189.5" as="sourcePoint" />
            <mxPoint x="979" y="220" as="targetPoint" />
          </mxGeometry>
        </mxCell>
        <mxCell id="YmZyUVctugemeGa0tmNT-78" value="" style="rounded=1;whiteSpace=wrap;html=1;fillColor=light-dark(#FFFFFF,#46A761);" parent="1" vertex="1">
          <mxGeometry x="995" y="241" width="250" height="30" as="geometry" />
        </mxCell>
        <mxCell id="YmZyUVctugemeGa0tmNT-79" value="" style="endArrow=none;html=1;rounded=0;exitX=0.5;exitY=0;exitDx=0;exitDy=0;strokeWidth=4;entryX=0.5;entryY=1;entryDx=0;entryDy=0;strokeColor=light-dark(#000000,#EC4A4D);" parent="1" edge="1">
          <mxGeometry width="50" height="50" relative="1" as="geometry">
            <mxPoint x="979" y="220.25" as="sourcePoint" />
            <mxPoint x="979" y="240" as="targetPoint" />
          </mxGeometry>
        </mxCell>
        <mxCell id="YmZyUVctugemeGa0tmNT-80" value="" style="endArrow=none;html=1;rounded=0;exitX=0.5;exitY=0;exitDx=0;exitDy=0;strokeWidth=4;strokeColor=light-dark(#000000,#46A761);" parent="1" edge="1">
          <mxGeometry width="50" height="50" relative="1" as="geometry">
            <mxPoint x="979" y="239.5" as="sourcePoint" />
            <mxPoint x="979" y="270" as="targetPoint" />
          </mxGeometry>
        </mxCell>
        <mxCell id="YmZyUVctugemeGa0tmNT-81" value="" style="endArrow=none;html=1;rounded=0;exitX=0.5;exitY=0;exitDx=0;exitDy=0;strokeWidth=4;entryX=0.5;entryY=1;entryDx=0;entryDy=0;strokeColor=light-dark(#000000,#EC4A4D);" parent="1" edge="1">
          <mxGeometry width="50" height="50" relative="1" as="geometry">
            <mxPoint x="979" y="270.25" as="sourcePoint" />
            <mxPoint x="979" y="290" as="targetPoint" />
          </mxGeometry>
        </mxCell>
        <mxCell id="YmZyUVctugemeGa0tmNT-83" value="" style="endArrow=none;html=1;rounded=0;exitX=0.5;exitY=0;exitDx=0;exitDy=0;strokeWidth=4;strokeColor=light-dark(#000000,#46A761);" parent="1" edge="1">
          <mxGeometry width="50" height="50" relative="1" as="geometry">
            <mxPoint x="1326" y="140.5" as="sourcePoint" />
            <mxPoint x="1326" y="270" as="targetPoint" />
          </mxGeometry>
        </mxCell>
        <mxCell id="YmZyUVctugemeGa0tmNT-84" value="" style="endArrow=none;html=1;rounded=0;exitX=0.5;exitY=0;exitDx=0;exitDy=0;entryX=0.5;entryY=1;entryDx=0;entryDy=0;strokeWidth=4;strokeColor=light-dark(#000000,#EC4A4D);" parent="1" edge="1">
          <mxGeometry width="50" height="50" relative="1" as="geometry">
            <mxPoint x="1326" y="121" as="sourcePoint" />
            <mxPoint x="1326" y="139.99999999999994" as="targetPoint" />
          </mxGeometry>
        </mxCell>
        <mxCell id="YmZyUVctugemeGa0tmNT-85" value="" style="endArrow=none;html=1;rounded=0;exitX=0.5;exitY=0;exitDx=0;exitDy=0;entryX=0.5;entryY=1;entryDx=0;entryDy=0;strokeWidth=4;strokeColor=light-dark(#000000,#EC4A4D);" parent="1" edge="1">
          <mxGeometry width="50" height="50" relative="1" as="geometry">
            <mxPoint x="1326" y="271" as="sourcePoint" />
            <mxPoint x="1326" y="289.99999999999994" as="targetPoint" />
          </mxGeometry>
        </mxCell>
        <mxCell id="YmZyUVctugemeGa0tmNT-86" value="ocupado" style="text;html=1;align=center;verticalAlign=middle;whiteSpace=wrap;rounded=0;fontColor=light-dark(#000000,#EC4A4D);" parent="1" vertex="1">
          <mxGeometry x="225" y="74" width="60" height="30" as="geometry" />
        </mxCell>
        <mxCell id="YmZyUVctugemeGa0tmNT-87" value="libre" style="text;html=1;align=center;verticalAlign=middle;whiteSpace=wrap;rounded=0;fontColor=light-dark(#000000,#46A761);" parent="1" vertex="1">
          <mxGeometry x="214" y="87" width="60" height="30" as="geometry" />
        </mxCell>
        <mxCell id="R5TEoD98UAiI7K2iKfly-3" value="Leer" style="edgeLabel;html=1;align=center;verticalAlign=middle;resizable=0;points=[];labelBackgroundColor=light-dark(#FFFFFF,#000000);" vertex="1" connectable="0" parent="1">
          <mxGeometry x="1490" y="195.5" as="geometry">
            <mxPoint x="229" y="-1" as="offset" />
          </mxGeometry>
        </mxCell>
      </root>
    </mxGraphModel>
  </diagram>
</mxfile>
